<mxfile host="app.diagrams.net" modified="2023-12-31T15:22:21.954Z" agent="Mozilla/5.0 (Windows NT 10.0; Win64; x64) AppleWebKit/537.36 (KHTML, like Gecko) Chrome/120.0.0.0 Safari/537.36 Edg/120.0.0.0" etag="C9NTpN2kHl-jbTaE6c-J" version="22.1.16" type="github">
  <diagram name="第 1 页" id="CXnDwjRMGaUGsgp23o9j">
    <mxGraphModel dx="2117" dy="4048" grid="1" gridSize="10" guides="1" tooltips="1" connect="1" arrows="1" fold="1" page="1" pageScale="1" pageWidth="827" pageHeight="1169" math="0" shadow="0">
      <root>
        <mxCell id="0" />
        <mxCell id="1" parent="0" />
        <mxCell id="CYDQbAtZ5SAw5Xn96PkI-10" value="" style="rounded=0;whiteSpace=wrap;html=1;" parent="1" vertex="1">
          <mxGeometry x="-445" y="-250" width="505" height="480" as="geometry" />
        </mxCell>
        <mxCell id="Gc67HA7nKRYaJuzNz2d2-187" value="" style="shape=partialRectangle;whiteSpace=wrap;html=1;bottom=0;right=0;fillColor=none;rotation=-90;" parent="1" vertex="1">
          <mxGeometry x="138" y="-2510" width="165" height="640" as="geometry" />
        </mxCell>
        <mxCell id="9N7CqTvN4q7yRGdAjkwI-36" style="edgeStyle=orthogonalEdgeStyle;rounded=0;orthogonalLoop=1;jettySize=auto;html=1;exitX=1;exitY=0.5;exitDx=0;exitDy=0;" parent="1" edge="1">
          <mxGeometry relative="1" as="geometry">
            <mxPoint x="640" y="179" as="targetPoint" />
            <mxPoint x="149.9999999999941" y="178" as="sourcePoint" />
          </mxGeometry>
        </mxCell>
        <mxCell id="9N7CqTvN4q7yRGdAjkwI-1" value="可执行文件" style="ellipse;whiteSpace=wrap;html=1;aspect=fixed;" parent="1" vertex="1">
          <mxGeometry x="80" y="144" width="70" height="70" as="geometry" />
        </mxCell>
        <mxCell id="9N7CqTvN4q7yRGdAjkwI-2" value="" style="shape=flexArrow;endArrow=classic;html=1;rounded=0;width=13;endSize=4.73;" parent="1" edge="1">
          <mxGeometry width="50" height="50" relative="1" as="geometry">
            <mxPoint x="80" y="-220" as="sourcePoint" />
            <mxPoint x="640" y="-220" as="targetPoint" />
          </mxGeometry>
        </mxCell>
        <mxCell id="9N7CqTvN4q7yRGdAjkwI-35" style="edgeStyle=orthogonalEdgeStyle;rounded=0;orthogonalLoop=1;jettySize=auto;html=1;exitX=1;exitY=0.5;exitDx=0;exitDy=0;" parent="1" source="9N7CqTvN4q7yRGdAjkwI-3" edge="1">
          <mxGeometry relative="1" as="geometry">
            <mxPoint x="640" y="-25" as="targetPoint" />
          </mxGeometry>
        </mxCell>
        <mxCell id="9N7CqTvN4q7yRGdAjkwI-3" value="pid=0" style="ellipse;whiteSpace=wrap;html=1;aspect=fixed;" parent="1" vertex="1">
          <mxGeometry x="200" y="-60" width="70" height="70" as="geometry" />
        </mxCell>
        <mxCell id="9N7CqTvN4q7yRGdAjkwI-40" style="edgeStyle=orthogonalEdgeStyle;rounded=0;orthogonalLoop=1;jettySize=auto;html=1;exitX=1;exitY=0.5;exitDx=0;exitDy=0;" parent="1" source="9N7CqTvN4q7yRGdAjkwI-5" edge="1">
          <mxGeometry relative="1" as="geometry">
            <mxPoint x="640" y="85" as="targetPoint" />
          </mxGeometry>
        </mxCell>
        <mxCell id="9N7CqTvN4q7yRGdAjkwI-5" value="pid=1" style="ellipse;whiteSpace=wrap;html=1;aspect=fixed;" parent="1" vertex="1">
          <mxGeometry x="350" y="50" width="70" height="70" as="geometry" />
        </mxCell>
        <mxCell id="9N7CqTvN4q7yRGdAjkwI-39" style="edgeStyle=orthogonalEdgeStyle;rounded=0;orthogonalLoop=1;jettySize=auto;html=1;exitX=1;exitY=0.5;exitDx=0;exitDy=0;" parent="1" source="9N7CqTvN4q7yRGdAjkwI-6" edge="1">
          <mxGeometry relative="1" as="geometry">
            <mxPoint x="640" y="-145" as="targetPoint" />
          </mxGeometry>
        </mxCell>
        <mxCell id="9N7CqTvN4q7yRGdAjkwI-6" value="pid=0" style="ellipse;whiteSpace=wrap;html=1;aspect=fixed;" parent="1" vertex="1">
          <mxGeometry x="350" y="-180" width="70" height="70" as="geometry" />
        </mxCell>
        <mxCell id="9N7CqTvN4q7yRGdAjkwI-18" value="execve&lt;br&gt;进程" style="text;html=1;align=center;verticalAlign=middle;resizable=0;points=[];autosize=1;strokeColor=none;fillColor=none;" parent="1" vertex="1">
          <mxGeometry x="155" y="159" width="60" height="40" as="geometry" />
        </mxCell>
        <mxCell id="9N7CqTvN4q7yRGdAjkwI-31" value="fork &amp;amp; execve&lt;br&gt;进程" style="text;html=1;align=center;verticalAlign=middle;resizable=0;points=[];autosize=1;strokeColor=none;fillColor=none;" parent="1" vertex="1">
          <mxGeometry x="200" y="65" width="100" height="40" as="geometry" />
        </mxCell>
        <mxCell id="9N7CqTvN4q7yRGdAjkwI-32" value="fork &amp;amp; execve&lt;br&gt;进程" style="text;html=1;align=center;verticalAlign=middle;resizable=0;points=[];autosize=1;strokeColor=none;fillColor=none;" parent="1" vertex="1">
          <mxGeometry x="350" y="-90" width="100" height="40" as="geometry" />
        </mxCell>
        <mxCell id="9N7CqTvN4q7yRGdAjkwI-33" value="fork &amp;amp; execve&lt;br&gt;进程" style="text;html=1;align=center;verticalAlign=middle;resizable=0;points=[];autosize=1;strokeColor=none;fillColor=none;" parent="1" vertex="1">
          <mxGeometry x="348" y="-5" width="100" height="40" as="geometry" />
        </mxCell>
        <mxCell id="9N7CqTvN4q7yRGdAjkwI-41" value="" style="endArrow=classic;html=1;rounded=0;entryX=0.5;entryY=1;entryDx=0;entryDy=0;" parent="1" target="9N7CqTvN4q7yRGdAjkwI-3" edge="1">
          <mxGeometry width="50" height="50" relative="1" as="geometry">
            <mxPoint x="235" y="180" as="sourcePoint" />
            <mxPoint x="300" y="90" as="targetPoint" />
          </mxGeometry>
        </mxCell>
        <mxCell id="9N7CqTvN4q7yRGdAjkwI-42" value="命名管道 mkfifo&lt;br&gt;匿名管道&amp;nbsp;pipe&lt;br&gt;open/read/write/close(fd)" style="rounded=0;whiteSpace=wrap;html=1;" parent="1" vertex="1">
          <mxGeometry x="-175" y="-230" width="170" height="440" as="geometry" />
        </mxCell>
        <mxCell id="Gc67HA7nKRYaJuzNz2d2-5" style="edgeStyle=orthogonalEdgeStyle;rounded=0;orthogonalLoop=1;jettySize=auto;html=1;exitX=1;exitY=0.5;exitDx=0;exitDy=0;" parent="1" source="Gc67HA7nKRYaJuzNz2d2-1" target="Gc67HA7nKRYaJuzNz2d2-2" edge="1">
          <mxGeometry relative="1" as="geometry" />
        </mxCell>
        <mxCell id="Gc67HA7nKRYaJuzNz2d2-1" value="词法分析器&lt;br&gt;Lexer 生成 TokenList&lt;br&gt;Token 词法单元" style="rounded=1;whiteSpace=wrap;html=1;" parent="1" vertex="1">
          <mxGeometry x="5" y="-948.75" width="150" height="120" as="geometry" />
        </mxCell>
        <mxCell id="Gc67HA7nKRYaJuzNz2d2-11" style="edgeStyle=orthogonalEdgeStyle;rounded=0;orthogonalLoop=1;jettySize=auto;html=1;exitX=1;exitY=0.5;exitDx=0;exitDy=0;entryX=0;entryY=0.5;entryDx=0;entryDy=0;" parent="1" source="Gc67HA7nKRYaJuzNz2d2-2" target="Gc67HA7nKRYaJuzNz2d2-10" edge="1">
          <mxGeometry relative="1" as="geometry" />
        </mxCell>
        <mxCell id="Gc67HA7nKRYaJuzNz2d2-2" value="语法分析器&lt;br&gt;Parser 生成 AST" style="rounded=1;whiteSpace=wrap;html=1;" parent="1" vertex="1">
          <mxGeometry x="230" y="-948.75" width="120" height="120" as="geometry" />
        </mxCell>
        <mxCell id="Gc67HA7nKRYaJuzNz2d2-4" style="edgeStyle=orthogonalEdgeStyle;rounded=0;orthogonalLoop=1;jettySize=auto;html=1;exitX=1;exitY=0.5;exitDx=0;exitDy=0;entryX=0;entryY=0.5;entryDx=0;entryDy=0;" parent="1" source="Gc67HA7nKRYaJuzNz2d2-3" target="Gc67HA7nKRYaJuzNz2d2-1" edge="1">
          <mxGeometry relative="1" as="geometry" />
        </mxCell>
        <mxCell id="Gc67HA7nKRYaJuzNz2d2-3" value="源代码" style="rounded=1;whiteSpace=wrap;html=1;" parent="1" vertex="1">
          <mxGeometry x="-185" y="-918.75" width="120" height="60" as="geometry" />
        </mxCell>
        <mxCell id="Gc67HA7nKRYaJuzNz2d2-6" value="" style="shape=curlyBracket;whiteSpace=wrap;html=1;rounded=1;flipH=1;labelPosition=right;verticalLabelPosition=middle;align=left;verticalAlign=middle;rotation=-90;" parent="1" vertex="1">
          <mxGeometry x="76.25" y="-1260" width="20" height="532.5" as="geometry" />
        </mxCell>
        <mxCell id="Gc67HA7nKRYaJuzNz2d2-7" value="编译器前端(compiler front end)" style="text;html=1;align=center;verticalAlign=middle;resizable=0;points=[];autosize=1;strokeColor=none;fillColor=none;" parent="1" vertex="1">
          <mxGeometry x="-5" y="-1038.75" width="190" height="30" as="geometry" />
        </mxCell>
        <mxCell id="Gc67HA7nKRYaJuzNz2d2-10" value="解释器&lt;br&gt;解释执行AST" style="rounded=1;whiteSpace=wrap;html=1;" parent="1" vertex="1">
          <mxGeometry x="419" y="-948.75" width="120" height="120" as="geometry" />
        </mxCell>
        <mxCell id="Gc67HA7nKRYaJuzNz2d2-25" style="edgeStyle=orthogonalEdgeStyle;rounded=0;orthogonalLoop=1;jettySize=auto;html=1;exitX=1;exitY=0.5;exitDx=0;exitDy=0;entryX=0;entryY=0.5;entryDx=0;entryDy=0;" parent="1" source="Gc67HA7nKRYaJuzNz2d2-14" target="Gc67HA7nKRYaJuzNz2d2-17" edge="1">
          <mxGeometry relative="1" as="geometry">
            <mxPoint x="-50" y="-530" as="targetPoint" />
          </mxGeometry>
        </mxCell>
        <mxCell id="Gc67HA7nKRYaJuzNz2d2-14" value="1.c" style="rounded=1;whiteSpace=wrap;html=1;" parent="1" vertex="1">
          <mxGeometry x="-220" y="-610" width="120" height="40" as="geometry" />
        </mxCell>
        <mxCell id="Gc67HA7nKRYaJuzNz2d2-26" style="edgeStyle=orthogonalEdgeStyle;rounded=0;orthogonalLoop=1;jettySize=auto;html=1;exitX=1;exitY=0.5;exitDx=0;exitDy=0;entryX=0;entryY=0.5;entryDx=0;entryDy=0;" parent="1" source="Gc67HA7nKRYaJuzNz2d2-15" target="Gc67HA7nKRYaJuzNz2d2-17" edge="1">
          <mxGeometry relative="1" as="geometry">
            <mxPoint x="-50" y="-530" as="targetPoint" />
          </mxGeometry>
        </mxCell>
        <mxCell id="Gc67HA7nKRYaJuzNz2d2-15" value="2.c" style="rounded=1;whiteSpace=wrap;html=1;" parent="1" vertex="1">
          <mxGeometry x="-220" y="-550" width="120" height="40" as="geometry" />
        </mxCell>
        <mxCell id="Gc67HA7nKRYaJuzNz2d2-27" style="edgeStyle=orthogonalEdgeStyle;rounded=0;orthogonalLoop=1;jettySize=auto;html=1;exitX=1;exitY=0.5;exitDx=0;exitDy=0;entryX=0;entryY=0.5;entryDx=0;entryDy=0;" parent="1" source="Gc67HA7nKRYaJuzNz2d2-16" target="Gc67HA7nKRYaJuzNz2d2-17" edge="1">
          <mxGeometry relative="1" as="geometry">
            <mxPoint x="-50" y="-530" as="targetPoint" />
          </mxGeometry>
        </mxCell>
        <mxCell id="Gc67HA7nKRYaJuzNz2d2-16" value="3.c" style="rounded=1;whiteSpace=wrap;html=1;" parent="1" vertex="1">
          <mxGeometry x="-220" y="-490" width="120" height="40" as="geometry" />
        </mxCell>
        <mxCell id="Gc67HA7nKRYaJuzNz2d2-28" style="edgeStyle=orthogonalEdgeStyle;rounded=0;orthogonalLoop=1;jettySize=auto;html=1;exitX=1;exitY=0.5;exitDx=0;exitDy=0;entryX=0;entryY=0.5;entryDx=0;entryDy=0;" parent="1" source="Gc67HA7nKRYaJuzNz2d2-17" target="Gc67HA7nKRYaJuzNz2d2-22" edge="1">
          <mxGeometry relative="1" as="geometry" />
        </mxCell>
        <mxCell id="Gc67HA7nKRYaJuzNz2d2-29" style="edgeStyle=orthogonalEdgeStyle;rounded=0;orthogonalLoop=1;jettySize=auto;html=1;exitX=1;exitY=0.5;exitDx=0;exitDy=0;entryX=0;entryY=0.5;entryDx=0;entryDy=0;" parent="1" source="Gc67HA7nKRYaJuzNz2d2-17" target="Gc67HA7nKRYaJuzNz2d2-23" edge="1">
          <mxGeometry relative="1" as="geometry" />
        </mxCell>
        <mxCell id="Gc67HA7nKRYaJuzNz2d2-30" style="edgeStyle=orthogonalEdgeStyle;rounded=0;orthogonalLoop=1;jettySize=auto;html=1;exitX=1;exitY=0.5;exitDx=0;exitDy=0;entryX=0;entryY=0.5;entryDx=0;entryDy=0;" parent="1" source="Gc67HA7nKRYaJuzNz2d2-17" target="Gc67HA7nKRYaJuzNz2d2-24" edge="1">
          <mxGeometry relative="1" as="geometry" />
        </mxCell>
        <mxCell id="Gc67HA7nKRYaJuzNz2d2-17" value="编译&lt;br&gt;输出.o&lt;br&gt;-I指定头文件搜索路径" style="rounded=1;whiteSpace=wrap;html=1;fillColor=#f5f5f5;fontColor=#333333;strokeColor=#666666;" parent="1" vertex="1">
          <mxGeometry x="-20" y="-560" width="150" height="60" as="geometry" />
        </mxCell>
        <mxCell id="Gc67HA7nKRYaJuzNz2d2-18" value="静态库&lt;br&gt;输出.o压缩包&lt;br&gt;libNAME.a" style="rounded=1;whiteSpace=wrap;html=1;" parent="1" vertex="1">
          <mxGeometry x="320" y="-700" width="120" height="80" as="geometry" />
        </mxCell>
        <mxCell id="U7prJ-iY_ifbDeuNAjAF-2" style="edgeStyle=orthogonalEdgeStyle;rounded=0;orthogonalLoop=1;jettySize=auto;html=1;exitX=1;exitY=0.5;exitDx=0;exitDy=0;entryX=0;entryY=0.5;entryDx=0;entryDy=0;" parent="1" source="Gc67HA7nKRYaJuzNz2d2-19" target="Gc67HA7nKRYaJuzNz2d2-20" edge="1">
          <mxGeometry relative="1" as="geometry" />
        </mxCell>
        <mxCell id="Gc67HA7nKRYaJuzNz2d2-19" value="动态库&lt;br&gt;输出.so或.dll&lt;br&gt;共享" style="rounded=1;whiteSpace=wrap;html=1;" parent="1" vertex="1">
          <mxGeometry x="320" y="-440" width="120" height="80" as="geometry" />
        </mxCell>
        <mxCell id="Gc67HA7nKRYaJuzNz2d2-20" value="链接&lt;br&gt;可执行文件&lt;br&gt;-llibName&lt;br&gt;指向动态库的引用" style="rounded=1;whiteSpace=wrap;html=1;fillColor=#f5f5f5;fontColor=#333333;strokeColor=#666666;" parent="1" vertex="1">
          <mxGeometry x="495" y="-445" width="120" height="90" as="geometry" />
        </mxCell>
        <mxCell id="U7prJ-iY_ifbDeuNAjAF-10" style="edgeStyle=orthogonalEdgeStyle;rounded=0;orthogonalLoop=1;jettySize=auto;html=1;exitX=0.5;exitY=0;exitDx=0;exitDy=0;entryX=1;entryY=0.5;entryDx=0;entryDy=0;" parent="1" source="Gc67HA7nKRYaJuzNz2d2-21" target="Gc67HA7nKRYaJuzNz2d2-18" edge="1">
          <mxGeometry relative="1" as="geometry" />
        </mxCell>
        <mxCell id="U7prJ-iY_ifbDeuNAjAF-11" style="edgeStyle=orthogonalEdgeStyle;rounded=0;orthogonalLoop=1;jettySize=auto;html=1;exitX=0.5;exitY=1;exitDx=0;exitDy=0;entryX=1;entryY=0.5;entryDx=0;entryDy=0;" parent="1" source="Gc67HA7nKRYaJuzNz2d2-21" target="Gc67HA7nKRYaJuzNz2d2-20" edge="1">
          <mxGeometry relative="1" as="geometry" />
        </mxCell>
        <mxCell id="Gc67HA7nKRYaJuzNz2d2-21" value="程序执行" style="rounded=1;whiteSpace=wrap;html=1;fillColor=#f5f5f5;fontColor=#333333;strokeColor=#666666;" parent="1" vertex="1">
          <mxGeometry x="707" y="-560" width="120" height="60" as="geometry" />
        </mxCell>
        <mxCell id="Gc67HA7nKRYaJuzNz2d2-202" style="edgeStyle=orthogonalEdgeStyle;rounded=0;orthogonalLoop=1;jettySize=auto;html=1;exitX=1;exitY=0.5;exitDx=0;exitDy=0;" parent="1" source="Gc67HA7nKRYaJuzNz2d2-22" edge="1">
          <mxGeometry relative="1" as="geometry">
            <mxPoint x="380" y="-590" as="targetPoint" />
          </mxGeometry>
        </mxCell>
        <mxCell id="Gc67HA7nKRYaJuzNz2d2-22" value="1.o" style="rounded=1;whiteSpace=wrap;html=1;" parent="1" vertex="1">
          <mxGeometry x="175" y="-610" width="120" height="40" as="geometry" />
        </mxCell>
        <mxCell id="Gc67HA7nKRYaJuzNz2d2-199" style="edgeStyle=orthogonalEdgeStyle;rounded=0;orthogonalLoop=1;jettySize=auto;html=1;exitX=1;exitY=0.5;exitDx=0;exitDy=0;" parent="1" source="Gc67HA7nKRYaJuzNz2d2-23" edge="1">
          <mxGeometry relative="1" as="geometry">
            <mxPoint x="380" y="-530" as="targetPoint" />
          </mxGeometry>
        </mxCell>
        <mxCell id="Gc67HA7nKRYaJuzNz2d2-23" value="2.o" style="rounded=1;whiteSpace=wrap;html=1;" parent="1" vertex="1">
          <mxGeometry x="175" y="-550" width="120" height="40" as="geometry" />
        </mxCell>
        <mxCell id="Gc67HA7nKRYaJuzNz2d2-203" style="edgeStyle=orthogonalEdgeStyle;rounded=0;orthogonalLoop=1;jettySize=auto;html=1;exitX=1;exitY=0.5;exitDx=0;exitDy=0;" parent="1" source="Gc67HA7nKRYaJuzNz2d2-24" edge="1">
          <mxGeometry relative="1" as="geometry">
            <mxPoint x="380" y="-470" as="targetPoint" />
          </mxGeometry>
        </mxCell>
        <mxCell id="Gc67HA7nKRYaJuzNz2d2-24" value="3.o" style="rounded=1;whiteSpace=wrap;html=1;" parent="1" vertex="1">
          <mxGeometry x="175" y="-490" width="120" height="40" as="geometry" />
        </mxCell>
        <mxCell id="Gc67HA7nKRYaJuzNz2d2-41" value="加载" style="text;html=1;align=center;verticalAlign=middle;resizable=0;points=[];autosize=1;strokeColor=none;fillColor=none;" parent="1" vertex="1">
          <mxGeometry x="710" y="-660" width="50" height="30" as="geometry" />
        </mxCell>
        <mxCell id="Gc67HA7nKRYaJuzNz2d2-84" value="" style="shape=table;startSize=0;container=1;collapsible=0;childLayout=tableLayout;fillColor=#dae8fc;strokeColor=#6c8ebf;" parent="1" vertex="1">
          <mxGeometry x="-283" y="-1470" width="480" height="40" as="geometry" />
        </mxCell>
        <mxCell id="Gc67HA7nKRYaJuzNz2d2-85" value="" style="shape=tableRow;horizontal=0;startSize=0;swimlaneHead=0;swimlaneBody=0;strokeColor=inherit;top=0;left=0;bottom=0;right=0;collapsible=0;dropTarget=0;fillColor=none;points=[[0,0.5],[1,0.5]];portConstraint=eastwest;" parent="Gc67HA7nKRYaJuzNz2d2-84" vertex="1">
          <mxGeometry width="480" height="40" as="geometry" />
        </mxCell>
        <mxCell id="Gc67HA7nKRYaJuzNz2d2-86" value="jump @main" style="shape=partialRectangle;html=1;whiteSpace=wrap;connectable=0;strokeColor=inherit;overflow=hidden;fillColor=none;top=0;left=0;bottom=0;right=0;pointerEvents=1;" parent="Gc67HA7nKRYaJuzNz2d2-85" vertex="1">
          <mxGeometry width="60" height="40" as="geometry">
            <mxRectangle width="60" height="40" as="alternateBounds" />
          </mxGeometry>
        </mxCell>
        <mxCell id="Gc67HA7nKRYaJuzNz2d2-87" value="var1" style="shape=partialRectangle;html=1;whiteSpace=wrap;connectable=0;strokeColor=inherit;overflow=hidden;fillColor=none;top=0;left=0;bottom=0;right=0;pointerEvents=1;" parent="Gc67HA7nKRYaJuzNz2d2-85" vertex="1">
          <mxGeometry x="60" width="60" height="40" as="geometry">
            <mxRectangle width="60" height="40" as="alternateBounds" />
          </mxGeometry>
        </mxCell>
        <mxCell id="Gc67HA7nKRYaJuzNz2d2-88" value="var2" style="shape=partialRectangle;html=1;whiteSpace=wrap;connectable=0;strokeColor=inherit;overflow=hidden;fillColor=none;top=0;left=0;bottom=0;right=0;pointerEvents=1;" parent="Gc67HA7nKRYaJuzNz2d2-85" vertex="1">
          <mxGeometry x="120" width="60" height="40" as="geometry">
            <mxRectangle width="60" height="40" as="alternateBounds" />
          </mxGeometry>
        </mxCell>
        <mxCell id="Gc67HA7nKRYaJuzNz2d2-89" value="return addr" style="shape=partialRectangle;html=1;whiteSpace=wrap;connectable=0;strokeColor=inherit;overflow=hidden;fillColor=none;top=0;left=0;bottom=0;right=0;pointerEvents=1;" parent="Gc67HA7nKRYaJuzNz2d2-85" vertex="1">
          <mxGeometry x="180" width="60" height="40" as="geometry">
            <mxRectangle width="60" height="40" as="alternateBounds" />
          </mxGeometry>
        </mxCell>
        <mxCell id="Gc67HA7nKRYaJuzNz2d2-90" value="var11" style="shape=partialRectangle;html=1;whiteSpace=wrap;connectable=0;strokeColor=inherit;overflow=hidden;fillColor=none;top=0;left=0;bottom=0;right=0;pointerEvents=1;" parent="Gc67HA7nKRYaJuzNz2d2-85" vertex="1">
          <mxGeometry x="240" width="60" height="40" as="geometry">
            <mxRectangle width="60" height="40" as="alternateBounds" />
          </mxGeometry>
        </mxCell>
        <mxCell id="Gc67HA7nKRYaJuzNz2d2-91" value="var22" style="shape=partialRectangle;html=1;whiteSpace=wrap;connectable=0;strokeColor=inherit;overflow=hidden;fillColor=none;top=0;left=0;bottom=0;right=0;pointerEvents=1;" parent="Gc67HA7nKRYaJuzNz2d2-85" vertex="1">
          <mxGeometry x="300" width="60" height="40" as="geometry">
            <mxRectangle width="60" height="40" as="alternateBounds" />
          </mxGeometry>
        </mxCell>
        <mxCell id="Gc67HA7nKRYaJuzNz2d2-92" value="" style="shape=partialRectangle;html=1;whiteSpace=wrap;connectable=0;strokeColor=inherit;overflow=hidden;fillColor=none;top=0;left=0;bottom=0;right=0;pointerEvents=1;" parent="Gc67HA7nKRYaJuzNz2d2-85" vertex="1">
          <mxGeometry x="360" width="60" height="40" as="geometry">
            <mxRectangle width="60" height="40" as="alternateBounds" />
          </mxGeometry>
        </mxCell>
        <mxCell id="Gc67HA7nKRYaJuzNz2d2-93" value="" style="shape=partialRectangle;html=1;whiteSpace=wrap;connectable=0;strokeColor=inherit;overflow=hidden;fillColor=none;top=0;left=0;bottom=0;right=0;pointerEvents=1;" parent="Gc67HA7nKRYaJuzNz2d2-85" vertex="1">
          <mxGeometry x="420" width="60" height="40" as="geometry">
            <mxRectangle width="60" height="40" as="alternateBounds" />
          </mxGeometry>
        </mxCell>
        <mxCell id="Gc67HA7nKRYaJuzNz2d2-112" value="" style="shape=table;startSize=0;container=1;collapsible=0;childLayout=tableLayout;fillColor=#d5e8d4;strokeColor=#82b366;" parent="1" vertex="1">
          <mxGeometry x="197" y="-1470" width="480" height="40" as="geometry" />
        </mxCell>
        <mxCell id="Gc67HA7nKRYaJuzNz2d2-113" value="" style="shape=tableRow;horizontal=0;startSize=0;swimlaneHead=0;swimlaneBody=0;strokeColor=inherit;top=0;left=0;bottom=0;right=0;collapsible=0;dropTarget=0;fillColor=none;points=[[0,0.5],[1,0.5]];portConstraint=eastwest;" parent="Gc67HA7nKRYaJuzNz2d2-112" vertex="1">
          <mxGeometry width="480" height="40" as="geometry" />
        </mxCell>
        <mxCell id="Gc67HA7nKRYaJuzNz2d2-114" value="@main&lt;br&gt;.memory" style="shape=partialRectangle;html=1;whiteSpace=wrap;connectable=0;strokeColor=inherit;overflow=hidden;fillColor=none;top=0;left=0;bottom=0;right=0;pointerEvents=1;" parent="Gc67HA7nKRYaJuzNz2d2-113" vertex="1">
          <mxGeometry width="60" height="40" as="geometry">
            <mxRectangle width="60" height="40" as="alternateBounds" />
          </mxGeometry>
        </mxCell>
        <mxCell id="Gc67HA7nKRYaJuzNz2d2-115" value="" style="shape=partialRectangle;html=1;whiteSpace=wrap;connectable=0;strokeColor=inherit;overflow=hidden;fillColor=none;top=0;left=0;bottom=0;right=0;pointerEvents=1;" parent="Gc67HA7nKRYaJuzNz2d2-113" vertex="1">
          <mxGeometry x="60" width="60" height="40" as="geometry">
            <mxRectangle width="60" height="40" as="alternateBounds" />
          </mxGeometry>
        </mxCell>
        <mxCell id="Gc67HA7nKRYaJuzNz2d2-116" value="" style="shape=partialRectangle;html=1;whiteSpace=wrap;connectable=0;strokeColor=inherit;overflow=hidden;fillColor=none;top=0;left=0;bottom=0;right=0;pointerEvents=1;" parent="Gc67HA7nKRYaJuzNz2d2-113" vertex="1">
          <mxGeometry x="120" width="60" height="40" as="geometry">
            <mxRectangle width="60" height="40" as="alternateBounds" />
          </mxGeometry>
        </mxCell>
        <mxCell id="Gc67HA7nKRYaJuzNz2d2-117" value="" style="shape=partialRectangle;html=1;whiteSpace=wrap;connectable=0;strokeColor=inherit;overflow=hidden;fillColor=none;top=0;left=0;bottom=0;right=0;pointerEvents=1;" parent="Gc67HA7nKRYaJuzNz2d2-113" vertex="1">
          <mxGeometry x="180" width="60" height="40" as="geometry">
            <mxRectangle width="60" height="40" as="alternateBounds" />
          </mxGeometry>
        </mxCell>
        <mxCell id="Gc67HA7nKRYaJuzNz2d2-118" value="" style="shape=partialRectangle;html=1;whiteSpace=wrap;connectable=0;strokeColor=inherit;overflow=hidden;fillColor=none;top=0;left=0;bottom=0;right=0;pointerEvents=1;" parent="Gc67HA7nKRYaJuzNz2d2-113" vertex="1">
          <mxGeometry x="240" width="60" height="40" as="geometry">
            <mxRectangle width="60" height="40" as="alternateBounds" />
          </mxGeometry>
        </mxCell>
        <mxCell id="Gc67HA7nKRYaJuzNz2d2-119" value="" style="shape=partialRectangle;html=1;whiteSpace=wrap;connectable=0;strokeColor=inherit;overflow=hidden;fillColor=none;top=0;left=0;bottom=0;right=0;pointerEvents=1;" parent="Gc67HA7nKRYaJuzNz2d2-113" vertex="1">
          <mxGeometry x="300" width="60" height="40" as="geometry">
            <mxRectangle width="60" height="40" as="alternateBounds" />
          </mxGeometry>
        </mxCell>
        <mxCell id="Gc67HA7nKRYaJuzNz2d2-120" value="" style="shape=partialRectangle;html=1;whiteSpace=wrap;connectable=0;strokeColor=inherit;overflow=hidden;fillColor=none;top=0;left=0;bottom=0;right=0;pointerEvents=1;" parent="Gc67HA7nKRYaJuzNz2d2-113" vertex="1">
          <mxGeometry x="360" width="60" height="40" as="geometry">
            <mxRectangle width="60" height="40" as="alternateBounds" />
          </mxGeometry>
        </mxCell>
        <mxCell id="Gc67HA7nKRYaJuzNz2d2-121" value="" style="shape=partialRectangle;html=1;whiteSpace=wrap;connectable=0;strokeColor=inherit;overflow=hidden;fillColor=none;top=0;left=0;bottom=0;right=0;pointerEvents=1;" parent="Gc67HA7nKRYaJuzNz2d2-113" vertex="1">
          <mxGeometry x="420" width="60" height="40" as="geometry">
            <mxRectangle width="60" height="40" as="alternateBounds" />
          </mxGeometry>
        </mxCell>
        <mxCell id="Gc67HA7nKRYaJuzNz2d2-122" value="a1" style="rounded=1;whiteSpace=wrap;html=1;" parent="1" vertex="1">
          <mxGeometry x="-130" y="-1720" width="120" height="60" as="geometry" />
        </mxCell>
        <mxCell id="Gc67HA7nKRYaJuzNz2d2-123" value="a2" style="rounded=1;whiteSpace=wrap;html=1;" parent="1" vertex="1">
          <mxGeometry x="-10" y="-1720" width="120" height="60" as="geometry" />
        </mxCell>
        <mxCell id="Gc67HA7nKRYaJuzNz2d2-124" value="a3" style="rounded=1;whiteSpace=wrap;html=1;" parent="1" vertex="1">
          <mxGeometry x="110" y="-1720" width="120" height="60" as="geometry" />
        </mxCell>
        <mxCell id="Gc67HA7nKRYaJuzNz2d2-179" style="edgeStyle=orthogonalEdgeStyle;rounded=0;orthogonalLoop=1;jettySize=auto;html=1;exitX=0.5;exitY=1;exitDx=0;exitDy=0;" parent="1" source="Gc67HA7nKRYaJuzNz2d2-125" edge="1">
          <mxGeometry relative="1" as="geometry">
            <mxPoint x="290" y="-1470.6" as="targetPoint" />
          </mxGeometry>
        </mxCell>
        <mxCell id="Gc67HA7nKRYaJuzNz2d2-125" value="pa&lt;br&gt;指向下一条要执行的指令地址&lt;br&gt;默认从0开始" style="rounded=1;whiteSpace=wrap;html=1;" parent="1" vertex="1">
          <mxGeometry x="205" y="-1600.6" width="170" height="70.6" as="geometry" />
        </mxCell>
        <mxCell id="Gc67HA7nKRYaJuzNz2d2-126" value="c1" style="rounded=1;whiteSpace=wrap;html=1;" parent="1" vertex="1">
          <mxGeometry x="255" y="-1720" width="120" height="60" as="geometry" />
        </mxCell>
        <mxCell id="Gc67HA7nKRYaJuzNz2d2-145" value="" style="shape=table;startSize=0;container=1;collapsible=0;childLayout=tableLayout;fillColor=#e1d5e7;strokeColor=#9673a6;" parent="1" vertex="1">
          <mxGeometry x="859" y="-1470" width="480" height="40" as="geometry" />
        </mxCell>
        <mxCell id="Gc67HA7nKRYaJuzNz2d2-146" value="" style="shape=tableRow;horizontal=0;startSize=0;swimlaneHead=0;swimlaneBody=0;strokeColor=inherit;top=0;left=0;bottom=0;right=0;collapsible=0;dropTarget=0;fillColor=none;points=[[0,0.5],[1,0.5]];portConstraint=eastwest;" parent="Gc67HA7nKRYaJuzNz2d2-145" vertex="1">
          <mxGeometry width="480" height="40" as="geometry" />
        </mxCell>
        <mxCell id="Gc67HA7nKRYaJuzNz2d2-147" value="字体的&lt;br&gt;像素点" style="shape=partialRectangle;html=1;whiteSpace=wrap;connectable=0;strokeColor=inherit;overflow=hidden;fillColor=none;top=0;left=0;bottom=0;right=0;pointerEvents=1;" parent="Gc67HA7nKRYaJuzNz2d2-146" vertex="1">
          <mxGeometry width="60" height="40" as="geometry">
            <mxRectangle width="60" height="40" as="alternateBounds" />
          </mxGeometry>
        </mxCell>
        <mxCell id="Gc67HA7nKRYaJuzNz2d2-148" value="字体的&lt;br style=&quot;border-color: var(--border-color);&quot;&gt;像素点" style="shape=partialRectangle;html=1;whiteSpace=wrap;connectable=0;strokeColor=inherit;overflow=hidden;fillColor=none;top=0;left=0;bottom=0;right=0;pointerEvents=1;" parent="Gc67HA7nKRYaJuzNz2d2-146" vertex="1">
          <mxGeometry x="60" width="60" height="40" as="geometry">
            <mxRectangle width="60" height="40" as="alternateBounds" />
          </mxGeometry>
        </mxCell>
        <mxCell id="Gc67HA7nKRYaJuzNz2d2-149" value="" style="shape=partialRectangle;html=1;whiteSpace=wrap;connectable=0;strokeColor=inherit;overflow=hidden;fillColor=none;top=0;left=0;bottom=0;right=0;pointerEvents=1;" parent="Gc67HA7nKRYaJuzNz2d2-146" vertex="1">
          <mxGeometry x="120" width="60" height="40" as="geometry">
            <mxRectangle width="60" height="40" as="alternateBounds" />
          </mxGeometry>
        </mxCell>
        <mxCell id="Gc67HA7nKRYaJuzNz2d2-150" value="" style="shape=partialRectangle;html=1;whiteSpace=wrap;connectable=0;strokeColor=inherit;overflow=hidden;fillColor=none;top=0;left=0;bottom=0;right=0;pointerEvents=1;" parent="Gc67HA7nKRYaJuzNz2d2-146" vertex="1">
          <mxGeometry x="180" width="60" height="40" as="geometry">
            <mxRectangle width="60" height="40" as="alternateBounds" />
          </mxGeometry>
        </mxCell>
        <mxCell id="Gc67HA7nKRYaJuzNz2d2-151" value="" style="shape=partialRectangle;html=1;whiteSpace=wrap;connectable=0;strokeColor=inherit;overflow=hidden;fillColor=none;top=0;left=0;bottom=0;right=0;pointerEvents=1;" parent="Gc67HA7nKRYaJuzNz2d2-146" vertex="1">
          <mxGeometry x="240" width="60" height="40" as="geometry">
            <mxRectangle width="60" height="40" as="alternateBounds" />
          </mxGeometry>
        </mxCell>
        <mxCell id="Gc67HA7nKRYaJuzNz2d2-152" value="" style="shape=partialRectangle;html=1;whiteSpace=wrap;connectable=0;strokeColor=inherit;overflow=hidden;fillColor=none;top=0;left=0;bottom=0;right=0;pointerEvents=1;" parent="Gc67HA7nKRYaJuzNz2d2-146" vertex="1">
          <mxGeometry x="300" width="60" height="40" as="geometry">
            <mxRectangle width="60" height="40" as="alternateBounds" />
          </mxGeometry>
        </mxCell>
        <mxCell id="Gc67HA7nKRYaJuzNz2d2-153" value="" style="shape=partialRectangle;html=1;whiteSpace=wrap;connectable=0;strokeColor=inherit;overflow=hidden;fillColor=none;top=0;left=0;bottom=0;right=0;pointerEvents=1;" parent="Gc67HA7nKRYaJuzNz2d2-146" vertex="1">
          <mxGeometry x="360" width="60" height="40" as="geometry">
            <mxRectangle width="60" height="40" as="alternateBounds" />
          </mxGeometry>
        </mxCell>
        <mxCell id="Gc67HA7nKRYaJuzNz2d2-154" value="" style="shape=partialRectangle;html=1;whiteSpace=wrap;connectable=0;strokeColor=inherit;overflow=hidden;fillColor=none;top=0;left=0;bottom=0;right=0;pointerEvents=1;" parent="Gc67HA7nKRYaJuzNz2d2-146" vertex="1">
          <mxGeometry x="420" width="60" height="40" as="geometry">
            <mxRectangle width="60" height="40" as="alternateBounds" />
          </mxGeometry>
        </mxCell>
        <mxCell id="Gc67HA7nKRYaJuzNz2d2-155" value="" style="shape=curlyBracket;whiteSpace=wrap;html=1;rounded=1;labelPosition=left;verticalLabelPosition=middle;align=right;verticalAlign=middle;rotation=-90;" parent="1" vertex="1">
          <mxGeometry x="1089" y="-1630" width="20" height="480" as="geometry" />
        </mxCell>
        <mxCell id="Gc67HA7nKRYaJuzNz2d2-156" value="显存" style="text;html=1;align=center;verticalAlign=middle;resizable=0;points=[];autosize=1;strokeColor=none;fillColor=none;" parent="1" vertex="1">
          <mxGeometry x="1074" y="-1380" width="50" height="30" as="geometry" />
        </mxCell>
        <mxCell id="Gc67HA7nKRYaJuzNz2d2-157" value="" style="shape=curlyBracket;whiteSpace=wrap;html=1;rounded=1;flipH=1;labelPosition=right;verticalLabelPosition=middle;align=left;verticalAlign=middle;rotation=90;" parent="1" vertex="1">
          <mxGeometry x="-53" y="-1630" width="20" height="480" as="geometry" />
        </mxCell>
        <mxCell id="Gc67HA7nKRYaJuzNz2d2-158" value="运行内存RAM" style="text;html=1;align=center;verticalAlign=middle;resizable=0;points=[];autosize=1;strokeColor=none;fillColor=none;" parent="1" vertex="1">
          <mxGeometry x="-93" y="-1380" width="100" height="30" as="geometry" />
        </mxCell>
        <mxCell id="Gc67HA7nKRYaJuzNz2d2-159" value="" style="shape=curlyBracket;whiteSpace=wrap;html=1;rounded=1;flipH=1;labelPosition=right;verticalLabelPosition=middle;align=left;verticalAlign=middle;rotation=90;" parent="1" vertex="1">
          <mxGeometry x="428" y="-1630" width="20" height="480" as="geometry" />
        </mxCell>
        <mxCell id="Gc67HA7nKRYaJuzNz2d2-160" value="程序的机器码" style="text;html=1;align=center;verticalAlign=middle;resizable=0;points=[];autosize=1;strokeColor=none;fillColor=none;" parent="1" vertex="1">
          <mxGeometry x="388" y="-1380" width="100" height="30" as="geometry" />
        </mxCell>
        <mxCell id="Gc67HA7nKRYaJuzNz2d2-162" style="edgeStyle=orthogonalEdgeStyle;rounded=0;orthogonalLoop=1;jettySize=auto;html=1;exitX=0.5;exitY=1;exitDx=0;exitDy=0;entryX=0.809;entryY=0.015;entryDx=0;entryDy=0;entryPerimeter=0;" parent="1" source="Gc67HA7nKRYaJuzNz2d2-161" edge="1">
          <mxGeometry relative="1" as="geometry">
            <mxPoint x="-69.67999999999984" y="-1470" as="targetPoint" />
          </mxGeometry>
        </mxCell>
        <mxCell id="Gc67HA7nKRYaJuzNz2d2-161" value="f1&lt;br&gt;函数返回地址" style="rounded=1;whiteSpace=wrap;html=1;" parent="1" vertex="1">
          <mxGeometry x="-130" y="-1600.6" width="120" height="60" as="geometry" />
        </mxCell>
        <mxCell id="Gc67HA7nKRYaJuzNz2d2-166" style="edgeStyle=orthogonalEdgeStyle;rounded=0;orthogonalLoop=1;jettySize=auto;html=1;exitX=1;exitY=0.5;exitDx=0;exitDy=0;entryX=0;entryY=0.5;entryDx=0;entryDy=0;" parent="1" source="Gc67HA7nKRYaJuzNz2d2-163" target="Gc67HA7nKRYaJuzNz2d2-164" edge="1">
          <mxGeometry relative="1" as="geometry" />
        </mxCell>
        <mxCell id="Gc67HA7nKRYaJuzNz2d2-163" value="ASM汇编代码" style="rounded=1;whiteSpace=wrap;html=1;" parent="1" vertex="1">
          <mxGeometry x="198" y="-1270" width="120" height="60" as="geometry" />
        </mxCell>
        <mxCell id="Gc67HA7nKRYaJuzNz2d2-167" style="edgeStyle=orthogonalEdgeStyle;rounded=0;orthogonalLoop=1;jettySize=auto;html=1;exitX=1;exitY=0.5;exitDx=0;exitDy=0;entryX=0;entryY=0.5;entryDx=0;entryDy=0;" parent="1" source="Gc67HA7nKRYaJuzNz2d2-164" target="Gc67HA7nKRYaJuzNz2d2-165" edge="1">
          <mxGeometry relative="1" as="geometry" />
        </mxCell>
        <mxCell id="Gc67HA7nKRYaJuzNz2d2-164" value="伪指令转汇编&lt;br&gt;.import" style="rounded=1;whiteSpace=wrap;html=1;" parent="1" vertex="1">
          <mxGeometry x="373" y="-1270" width="120" height="60" as="geometry" />
        </mxCell>
        <mxCell id="Gc67HA7nKRYaJuzNz2d2-168" style="edgeStyle=orthogonalEdgeStyle;rounded=0;orthogonalLoop=1;jettySize=auto;html=1;" parent="1" source="Gc67HA7nKRYaJuzNz2d2-165" target="Gc67HA7nKRYaJuzNz2d2-160" edge="1">
          <mxGeometry relative="1" as="geometry">
            <Array as="points">
              <mxPoint x="578" y="-1310" />
              <mxPoint x="438" y="-1310" />
            </Array>
          </mxGeometry>
        </mxCell>
        <mxCell id="Gc67HA7nKRYaJuzNz2d2-165" value="机器码&lt;br&gt;小端序存储到vm" style="rounded=1;whiteSpace=wrap;html=1;" parent="1" vertex="1">
          <mxGeometry x="553" y="-1270" width="120" height="60" as="geometry" />
        </mxCell>
        <mxCell id="Gc67HA7nKRYaJuzNz2d2-169" value="" style="shape=table;startSize=0;container=1;collapsible=0;childLayout=tableLayout;fillColor=#fff2cc;strokeColor=#d6b656;" parent="1" vertex="1">
          <mxGeometry x="1339" y="-1470" width="180" height="40" as="geometry" />
        </mxCell>
        <mxCell id="Gc67HA7nKRYaJuzNz2d2-170" value="" style="shape=tableRow;horizontal=0;startSize=0;swimlaneHead=0;swimlaneBody=0;strokeColor=inherit;top=0;left=0;bottom=0;right=0;collapsible=0;dropTarget=0;fillColor=none;points=[[0,0.5],[1,0.5]];portConstraint=eastwest;" parent="Gc67HA7nKRYaJuzNz2d2-169" vertex="1">
          <mxGeometry width="180" height="40" as="geometry" />
        </mxCell>
        <mxCell id="Gc67HA7nKRYaJuzNz2d2-171" value="a&lt;br&gt;4byte" style="shape=partialRectangle;html=1;whiteSpace=wrap;connectable=0;strokeColor=inherit;overflow=hidden;fillColor=none;top=0;left=0;bottom=0;right=0;pointerEvents=1;" parent="Gc67HA7nKRYaJuzNz2d2-170" vertex="1">
          <mxGeometry width="60" height="40" as="geometry">
            <mxRectangle width="60" height="40" as="alternateBounds" />
          </mxGeometry>
        </mxCell>
        <mxCell id="Gc67HA7nKRYaJuzNz2d2-172" value="b&lt;br style=&quot;border-color: var(--border-color);&quot;&gt;4byte" style="shape=partialRectangle;html=1;whiteSpace=wrap;connectable=0;strokeColor=inherit;overflow=hidden;fillColor=none;top=0;left=0;bottom=0;right=0;pointerEvents=1;" parent="Gc67HA7nKRYaJuzNz2d2-170" vertex="1">
          <mxGeometry x="60" width="60" height="40" as="geometry">
            <mxRectangle width="60" height="40" as="alternateBounds" />
          </mxGeometry>
        </mxCell>
        <mxCell id="Gc67HA7nKRYaJuzNz2d2-173" value="c&lt;br style=&quot;border-color: var(--border-color);&quot;&gt;4byte" style="shape=partialRectangle;html=1;whiteSpace=wrap;connectable=0;strokeColor=inherit;overflow=hidden;fillColor=none;top=0;left=0;bottom=0;right=0;pointerEvents=1;" parent="Gc67HA7nKRYaJuzNz2d2-170" vertex="1">
          <mxGeometry x="120" width="60" height="40" as="geometry">
            <mxRectangle width="60" height="40" as="alternateBounds" />
          </mxGeometry>
        </mxCell>
        <mxCell id="Gc67HA7nKRYaJuzNz2d2-174" value="" style="shape=curlyBracket;whiteSpace=wrap;html=1;rounded=1;labelPosition=left;verticalLabelPosition=middle;align=right;verticalAlign=middle;rotation=-90;" parent="1" vertex="1">
          <mxGeometry x="1420" y="-1480" width="20" height="180" as="geometry" />
        </mxCell>
        <mxCell id="Gc67HA7nKRYaJuzNz2d2-176" value="字体" style="text;html=1;align=center;verticalAlign=middle;resizable=0;points=[];autosize=1;strokeColor=none;fillColor=none;" parent="1" vertex="1">
          <mxGeometry x="1405" y="-1380" width="50" height="30" as="geometry" />
        </mxCell>
        <mxCell id="Gc67HA7nKRYaJuzNz2d2-209" style="edgeStyle=orthogonalEdgeStyle;rounded=0;orthogonalLoop=1;jettySize=auto;html=1;exitX=0.5;exitY=0;exitDx=0;exitDy=0;" parent="1" source="Gc67HA7nKRYaJuzNz2d2-177" target="Gc67HA7nKRYaJuzNz2d2-156" edge="1">
          <mxGeometry relative="1" as="geometry" />
        </mxCell>
        <mxCell id="Gc67HA7nKRYaJuzNz2d2-177" value="NxN 的屏幕，显存大小至少是 NxN&lt;br&gt;若干像素点 (颜色) 组成一个字符&lt;br&gt;不断从显存取数据画到屏幕上" style="rounded=1;whiteSpace=wrap;html=1;" parent="1" vertex="1">
          <mxGeometry x="909" y="-1288" width="380" height="96" as="geometry" />
        </mxCell>
        <mxCell id="Gc67HA7nKRYaJuzNz2d2-184" style="edgeStyle=orthogonalEdgeStyle;rounded=0;orthogonalLoop=1;jettySize=auto;html=1;exitX=0;exitY=0.5;exitDx=0;exitDy=0;" parent="1" source="Gc67HA7nKRYaJuzNz2d2-183" target="Gc67HA7nKRYaJuzNz2d2-177" edge="1">
          <mxGeometry relative="1" as="geometry" />
        </mxCell>
        <mxCell id="Gc67HA7nKRYaJuzNz2d2-183" value="字体数据填充到显存就可以画出字符" style="rounded=1;whiteSpace=wrap;html=1;" parent="1" vertex="1">
          <mxGeometry x="1355" y="-1270" width="150" height="60" as="geometry" />
        </mxCell>
        <mxCell id="Gc67HA7nKRYaJuzNz2d2-185" value="周期，频率，&lt;span style=&quot;background-color: initial;&quot;&gt;采样率，&lt;/span&gt;采样时间&lt;br&gt;do re mi fa...&lt;br&gt;【每个周期的样本数据个数】&lt;br&gt;波形&lt;br&gt;声道&lt;br&gt;电子音，真实的声音，基础频率 + 谐波 harmonics&lt;br&gt;synthesizer" style="rounded=1;whiteSpace=wrap;html=1;" parent="1" vertex="1">
          <mxGeometry x="-107" y="-2500" width="655" height="140" as="geometry" />
        </mxCell>
        <mxCell id="Gc67HA7nKRYaJuzNz2d2-188" value="时间" style="text;html=1;align=center;verticalAlign=middle;resizable=0;points=[];autosize=1;strokeColor=none;fillColor=none;" parent="1" vertex="1">
          <mxGeometry x="540" y="-2122" width="50" height="30" as="geometry" />
        </mxCell>
        <mxCell id="Gc67HA7nKRYaJuzNz2d2-189" value="结果值" style="text;html=1;align=center;verticalAlign=middle;resizable=0;points=[];autosize=1;strokeColor=none;fillColor=none;" parent="1" vertex="1">
          <mxGeometry x="-130" y="-2302" width="60" height="30" as="geometry" />
        </mxCell>
        <mxCell id="Gc67HA7nKRYaJuzNz2d2-193" value="" style="shape=stencil(rZnvbhM7EMWfJl9Htsd/xh9RgffIvQQaAW2VFrh5+zvb4Ik8ASQfIVWVku3+uh4fj8/x7vju+X7/dNilcL/jt7uUYgj6Wz//cJ/3z0+Hf18uX37fn477f74cLleeX06Pnw8/jh9efjKOD/eH0/Flu8rvduGN/s32w3cfH0+HT6fHbw8fpgvj8tN+I9xcGJe/Pn7fHvS/yz8J9PPBzpfPxb7Ypfd/oHw5Pvx1SqQQJ0xmqm2dkyikicONcl7nMAWeOZFyWudkCnnipEK1r3MKhTIXSAvPZR1UKdQZFAsBnEahOU6kCIxMKMgMalQiMGWdQncaUpAAWgzkSk2pACXaCjKDArXSK0BKFJMjhVIrAyimyA4VS0NImeKsbV3EyOCKPoCrd0PKXSnWuRURsGJjo9gmjBA3BCQ01He2aUwRAHVbWGcbagUqrVM9q0hnrAKV1tuSWyHaDoC1v60s164TIRym5Nq1UAeWvraMNGs6q4iQEl1vG2KMVJChVUpO1Q0qUaM0y7pmbM6E0izrtjUjANQpzbJuujcCk8a6E84LNlAH1plu8TzLWvSBgM6oIuZZ1tKpAbVmJp6H1pmQB8rEs6x7tR1lCVTMdAyQQLs+V+JZ1r1TRkBNu7MHdQSkbV48CLFq3Im7rxGy9HOgm0lrgK6zWtdZ112XPmCuczIPPEDqaAA9qrnPbslWDJTN3Q9QIsQ8apvPs7BbswiwBKqUZ2G3CAk7a3BxDVu7EcARyrOuS7dHXAJdF+gAsVmlpSwTyGUZLZoAtd621FmPumQKMPslUXH+IRPCYfv3wxiJjXUJpNHFeWI1RkitNdzNclR/K8Dsl0pllqMmiYQ8kcY712eVg9To2lXN73foiTrNJdKBdUCONZCP1pQRi1XVlvu4x5aSl0jJDMw1OIaqGwDAYqrZsUoQZHzZYocVSgLg/LaO6KdOBPA1tdpp02i2uvcjQ2tmYcfQAhT6qpj5GKBsTmcJpNZz5nTI96vLdwc+GpYYqLXuh21Wt3aAjhxBJfMMY/YLZPwbU3OpLxHCyXZwMThi1msJVKi50JehM5GmtsrpOtoJ6RKoUZt1rUpHRiYWhM42i9CcdXIpVKDzUM2K7vhR2MLSEkh7mAt9DQp96mDFhb4IxVAdiLgAkQnosqJ3udDXoEMRjdPiQp8QshVpWpCb0CcISM3QTeiDnkhIugclBNSp+1ojK79fz0AGqFgQWAJFdVUzKEGBRm/rLvQJIaams03R2RSKlCjbtnO2poKch2plu8t82Y6SlkDVTP7osmJueQnU7PhzgJIFgSWQ2GHK2ImqnUmtvVRZfVHId/r9b15o8t3llekvbn697eY16eu3lxe1r1/8Dw==);whiteSpace=wrap;html=1;" parent="1" vertex="1">
          <mxGeometry x="201" y="-2212" width="300" height="210" as="geometry" />
        </mxCell>
        <mxCell id="Gc67HA7nKRYaJuzNz2d2-194" value="" style="shape=stencil(rZnvbhM7EMWfJl9Htsd/xh9RgffIvQQaAW2VFrh5+zvb4Ik8ASQfIVWVku3+uh4fj8/x7vju+X7/dNilcL/jt7uUYgj6Wz//cJ/3z0+Hf18uX37fn477f74cLleeX06Pnw8/jh9efjKOD/eH0/Flu8rvduGN/s32w3cfH0+HT6fHbw8fpgvj8tN+I9xcGJe/Pn7fHvS/yz8J9PPBzpfPxb7Ypfd/oHw5Pvx1SqQQJ0xmqm2dkyikicONcl7nMAWeOZFyWudkCnnipEK1r3MKhTIXSAvPZR1UKdQZFAsBnEahOU6kCIxMKMgMalQiMGWdQncaUpAAWgzkSk2pACXaCjKDArXSK0BKFJMjhVIrAyimyA4VS0NImeKsbV3EyOCKPoCrd0PKXSnWuRURsGJjo9gmjBA3BCQ01He2aUwRAHVbWGcbagUqrVM9q0hnrAKV1tuSWyHaDoC1v60s164TIRym5Nq1UAeWvraMNGs6q4iQEl1vG2KMVJChVUpO1Q0qUaM0y7pmbM6E0izrtjUjANQpzbJuujcCk8a6E84LNlAH1plu8TzLWvSBgM6oIuZZ1tKpAbVmJp6H1pmQB8rEs6x7tR1lCVTMdAyQQLs+V+JZ1r1TRkBNu7MHdQSkbV48CLFq3Im7rxGy9HOgm0lrgK6zWtdZ112XPmCuczIPPEDqaAA9qrnPbslWDJTN3Q9QIsQ8apvPs7BbswiwBKqUZ2G3CAk7a3BxDVu7EcARyrOuS7dHXAJdF+gAsVmlpSwTyGUZLZoAtd621FmPumQKMPslUXH+IRPCYfv3wxiJjXUJpNHFeWI1RkitNdzNclR/K8Dsl0pllqMmiYQ8kcY712eVg9To2lXN73foiTrNJdKBdUCONZCP1pQRi1XVlvu4x5aSl0jJDMw1OIaqGwDAYqrZsUoQZHzZYocVSgLg/LaO6KdOBPA1tdpp02i2uvcjQ2tmYcfQAhT6qpj5GKBsTmcJpNZz5nTI96vLdwc+GpYYqLXuh21Wt3aAjhxBJfMMY/YLZPwbU3OpLxHCyXZwMThi1msJVKi50JehM5GmtsrpOtoJ6RKoUZt1rUpHRiYWhM42i9CcdXIpVKDzUM2K7vhR2MLSEkh7mAt9DQp96mDFhb4IxVAdiLgAkQnosqJ3udDXoEMRjdPiQp8QshVpWpCb0CcISM3QTeiDnkhIugclBNSp+1ojK79fz0AGqFgQWAJFdVUzKEGBRm/rLvQJIaams03R2RSKlCjbtnO2poKch2plu8t82Y6SlkDVTP7osmJueQnU7PhzgJIFgSWQ2GHK2ImqnUmtvVRZfVHId/r9b15o8t3llekvbn697eY16eu3lxe1r1/8Dw==);whiteSpace=wrap;html=1;" parent="1" vertex="1">
          <mxGeometry x="-99" y="-2212" width="300" height="210" as="geometry" />
        </mxCell>
        <mxCell id="Gc67HA7nKRYaJuzNz2d2-200" value="" style="endArrow=classic;html=1;rounded=0;entryX=0.5;entryY=1;entryDx=0;entryDy=0;" parent="1" target="Gc67HA7nKRYaJuzNz2d2-18" edge="1">
          <mxGeometry width="50" height="50" relative="1" as="geometry">
            <mxPoint x="380" y="-530" as="sourcePoint" />
            <mxPoint x="450" y="-540" as="targetPoint" />
          </mxGeometry>
        </mxCell>
        <mxCell id="Gc67HA7nKRYaJuzNz2d2-201" value="" style="endArrow=classic;html=1;rounded=0;entryX=0.5;entryY=0;entryDx=0;entryDy=0;" parent="1" target="Gc67HA7nKRYaJuzNz2d2-19" edge="1">
          <mxGeometry width="50" height="50" relative="1" as="geometry">
            <mxPoint x="380" y="-530" as="sourcePoint" />
            <mxPoint x="460" y="-540" as="targetPoint" />
          </mxGeometry>
        </mxCell>
        <mxCell id="Gc67HA7nKRYaJuzNz2d2-207" value="" style="endArrow=classic;html=1;rounded=0;entryX=0.5;entryY=1;entryDx=0;entryDy=0;" parent="1" edge="1">
          <mxGeometry width="50" height="50" relative="1" as="geometry">
            <mxPoint x="385" y="-22" as="sourcePoint" />
            <mxPoint x="385" y="-112" as="targetPoint" />
          </mxGeometry>
        </mxCell>
        <mxCell id="Gc67HA7nKRYaJuzNz2d2-208" value="" style="endArrow=classic;html=1;rounded=0;" parent="1" edge="1">
          <mxGeometry width="50" height="50" relative="1" as="geometry">
            <mxPoint x="385" y="-22" as="sourcePoint" />
            <mxPoint x="385" y="50" as="targetPoint" />
          </mxGeometry>
        </mxCell>
        <mxCell id="Gc67HA7nKRYaJuzNz2d2-211" value="" style="endArrow=classic;html=1;rounded=0;exitX=0.492;exitY=1.187;exitDx=0;exitDy=0;exitPerimeter=0;entryX=0.5;entryY=0;entryDx=0;entryDy=0;" parent="1" source="Gc67HA7nKRYaJuzNz2d2-176" target="Gc67HA7nKRYaJuzNz2d2-183" edge="1">
          <mxGeometry width="50" height="50" relative="1" as="geometry">
            <mxPoint x="1603" y="-1300" as="sourcePoint" />
            <mxPoint x="1653" y="-1350" as="targetPoint" />
          </mxGeometry>
        </mxCell>
        <mxCell id="Gc67HA7nKRYaJuzNz2d2-213" style="edgeStyle=orthogonalEdgeStyle;rounded=0;orthogonalLoop=1;jettySize=auto;html=1;exitX=0.5;exitY=0;exitDx=0;exitDy=0;" parent="1" source="Gc67HA7nKRYaJuzNz2d2-212" target="Gc67HA7nKRYaJuzNz2d2-158" edge="1">
          <mxGeometry relative="1" as="geometry" />
        </mxCell>
        <mxCell id="Gc67HA7nKRYaJuzNz2d2-212" value=".call时预填充变量&lt;br&gt;a1用于存返回值" style="rounded=1;whiteSpace=wrap;html=1;" parent="1" vertex="1">
          <mxGeometry x="-103" y="-1270" width="120" height="60" as="geometry" />
        </mxCell>
        <mxCell id="Gc67HA7nKRYaJuzNz2d2-214" value="点，线&lt;br&gt;两点连线，x/y 步进，颜色插值渐变&lt;br&gt;三角形&lt;br&gt;三角形顶点，顶点法向量，uv贴图坐标组成 .gua3d&lt;br&gt;贴图文件&amp;nbsp;.axeimage&lt;br&gt;zbuffer 深度检测&lt;br&gt;光照" style="rounded=1;whiteSpace=wrap;html=1;" parent="1" vertex="1">
          <mxGeometry x="15" y="-2970" width="380" height="160" as="geometry" />
        </mxCell>
        <mxCell id="U7prJ-iY_ifbDeuNAjAF-7" value="按搜索路径加载" style="text;html=1;align=center;verticalAlign=middle;resizable=0;points=[];autosize=1;strokeColor=none;fillColor=none;" parent="1" vertex="1">
          <mxGeometry x="660" y="-430" width="110" height="30" as="geometry" />
        </mxCell>
        <mxCell id="z-rIvI2zFWL_kdrXMGRq-1" value="" style="shape=table;startSize=0;container=1;collapsible=0;childLayout=tableLayout;fillColor=#f8cecc;strokeColor=#b85450;" parent="1" vertex="1">
          <mxGeometry x="678" y="-1470" width="180" height="40" as="geometry" />
        </mxCell>
        <mxCell id="z-rIvI2zFWL_kdrXMGRq-2" value="" style="shape=tableRow;horizontal=0;startSize=0;swimlaneHead=0;swimlaneBody=0;strokeColor=inherit;top=0;left=0;bottom=0;right=0;collapsible=0;dropTarget=0;fillColor=none;points=[[0,0.5],[1,0.5]];portConstraint=eastwest;" parent="z-rIvI2zFWL_kdrXMGRq-1" vertex="1">
          <mxGeometry width="180" height="40" as="geometry" />
        </mxCell>
        <mxCell id="z-rIvI2zFWL_kdrXMGRq-3" value="malloc" style="shape=partialRectangle;html=1;whiteSpace=wrap;connectable=0;strokeColor=inherit;overflow=hidden;fillColor=none;top=0;left=0;bottom=0;right=0;pointerEvents=1;" parent="z-rIvI2zFWL_kdrXMGRq-2" vertex="1">
          <mxGeometry width="60" height="40" as="geometry">
            <mxRectangle width="60" height="40" as="alternateBounds" />
          </mxGeometry>
        </mxCell>
        <mxCell id="z-rIvI2zFWL_kdrXMGRq-4" value="" style="shape=partialRectangle;html=1;whiteSpace=wrap;connectable=0;strokeColor=inherit;overflow=hidden;fillColor=none;top=0;left=0;bottom=0;right=0;pointerEvents=1;" parent="z-rIvI2zFWL_kdrXMGRq-2" vertex="1">
          <mxGeometry x="60" width="60" height="40" as="geometry">
            <mxRectangle width="60" height="40" as="alternateBounds" />
          </mxGeometry>
        </mxCell>
        <mxCell id="z-rIvI2zFWL_kdrXMGRq-5" value="" style="shape=partialRectangle;html=1;whiteSpace=wrap;connectable=0;strokeColor=inherit;overflow=hidden;fillColor=none;top=0;left=0;bottom=0;right=0;pointerEvents=1;" parent="z-rIvI2zFWL_kdrXMGRq-2" vertex="1">
          <mxGeometry x="120" width="60" height="40" as="geometry">
            <mxRectangle width="60" height="40" as="alternateBounds" />
          </mxGeometry>
        </mxCell>
        <mxCell id="z-rIvI2zFWL_kdrXMGRq-6" value="" style="shape=curlyBracket;whiteSpace=wrap;html=1;rounded=1;flipH=1;labelPosition=right;verticalLabelPosition=middle;align=left;verticalAlign=middle;rotation=90;" parent="1" vertex="1">
          <mxGeometry x="758" y="-1480" width="20" height="180" as="geometry" />
        </mxCell>
        <mxCell id="z-rIvI2zFWL_kdrXMGRq-7" value="全局变量" style="text;html=1;align=center;verticalAlign=middle;resizable=0;points=[];autosize=1;strokeColor=none;fillColor=none;" parent="1" vertex="1">
          <mxGeometry x="733" y="-1380" width="70" height="30" as="geometry" />
        </mxCell>
        <mxCell id="nsbCHV1jgP-7_xdYhr4n-2" value="" style="shape=singleArrow;whiteSpace=wrap;html=1;arrowWidth=0.4;arrowSize=0.4;rotation=-90;" parent="1" vertex="1">
          <mxGeometry x="270" y="270" width="120" height="60" as="geometry" />
        </mxCell>
        <mxCell id="nsbCHV1jgP-7_xdYhr4n-3" value="signal &amp;amp; handler&lt;br&gt;SIGINT &amp;amp; SIGTSTP" style="text;html=1;align=center;verticalAlign=middle;resizable=0;points=[];autosize=1;strokeColor=none;fillColor=none;" parent="1" vertex="1">
          <mxGeometry x="265" y="370" width="130" height="40" as="geometry" />
        </mxCell>
        <mxCell id="nsbCHV1jgP-7_xdYhr4n-20" value="" style="shape=table;startSize=0;container=1;collapsible=0;childLayout=tableLayout;" parent="1" vertex="1">
          <mxGeometry x="75" y="565" width="305" height="55" as="geometry" />
        </mxCell>
        <mxCell id="nsbCHV1jgP-7_xdYhr4n-21" value="" style="shape=tableRow;horizontal=0;startSize=0;swimlaneHead=0;swimlaneBody=0;strokeColor=inherit;top=0;left=0;bottom=0;right=0;collapsible=0;dropTarget=0;fillColor=none;points=[[0,0.5],[1,0.5]];portConstraint=eastwest;" parent="nsbCHV1jgP-7_xdYhr4n-20" vertex="1">
          <mxGeometry width="305" height="55" as="geometry" />
        </mxCell>
        <mxCell id="nsbCHV1jgP-7_xdYhr4n-22" value="*s&lt;br&gt;指针" style="shape=partialRectangle;html=1;whiteSpace=wrap;connectable=0;strokeColor=inherit;overflow=hidden;fillColor=none;top=0;left=0;bottom=0;right=0;pointerEvents=1;" parent="nsbCHV1jgP-7_xdYhr4n-21" vertex="1">
          <mxGeometry width="61" height="55" as="geometry">
            <mxRectangle width="61" height="55" as="alternateBounds" />
          </mxGeometry>
        </mxCell>
        <mxCell id="nsbCHV1jgP-7_xdYhr4n-23" value="char" style="shape=partialRectangle;html=1;whiteSpace=wrap;connectable=0;strokeColor=inherit;overflow=hidden;fillColor=none;top=0;left=0;bottom=0;right=0;pointerEvents=1;" parent="nsbCHV1jgP-7_xdYhr4n-21" vertex="1">
          <mxGeometry x="61" width="61" height="55" as="geometry">
            <mxRectangle width="61" height="55" as="alternateBounds" />
          </mxGeometry>
        </mxCell>
        <mxCell id="nsbCHV1jgP-7_xdYhr4n-24" value="char" style="shape=partialRectangle;html=1;whiteSpace=wrap;connectable=0;strokeColor=inherit;overflow=hidden;fillColor=none;top=0;left=0;bottom=0;right=0;pointerEvents=1;" parent="nsbCHV1jgP-7_xdYhr4n-21" vertex="1">
          <mxGeometry x="122" width="61" height="55" as="geometry">
            <mxRectangle width="61" height="55" as="alternateBounds" />
          </mxGeometry>
        </mxCell>
        <mxCell id="nsbCHV1jgP-7_xdYhr4n-25" value="......." style="shape=partialRectangle;html=1;whiteSpace=wrap;connectable=0;strokeColor=inherit;overflow=hidden;fillColor=none;top=0;left=0;bottom=0;right=0;pointerEvents=1;" parent="nsbCHV1jgP-7_xdYhr4n-21" vertex="1">
          <mxGeometry x="183" width="61" height="55" as="geometry">
            <mxRectangle width="61" height="55" as="alternateBounds" />
          </mxGeometry>
        </mxCell>
        <mxCell id="nsbCHV1jgP-7_xdYhr4n-26" value="\0" style="shape=partialRectangle;html=1;whiteSpace=wrap;connectable=0;strokeColor=inherit;overflow=hidden;fillColor=none;top=0;left=0;bottom=0;right=0;pointerEvents=1;" parent="nsbCHV1jgP-7_xdYhr4n-21" vertex="1">
          <mxGeometry x="244" width="61" height="55" as="geometry">
            <mxRectangle width="61" height="55" as="alternateBounds" />
          </mxGeometry>
        </mxCell>
        <mxCell id="CYDQbAtZ5SAw5Xn96PkI-1" value="fd0 标准输入" style="rounded=0;whiteSpace=wrap;html=1;" parent="1" vertex="1">
          <mxGeometry x="-390" y="-200" width="120" height="60" as="geometry" />
        </mxCell>
        <mxCell id="CYDQbAtZ5SAw5Xn96PkI-2" value="fd1 标准输出" style="rounded=0;whiteSpace=wrap;html=1;" parent="1" vertex="1">
          <mxGeometry x="-390" y="-120" width="120" height="60" as="geometry" />
        </mxCell>
        <mxCell id="CYDQbAtZ5SAw5Xn96PkI-3" value="fd2 标准错误输出" style="rounded=0;whiteSpace=wrap;html=1;" parent="1" vertex="1">
          <mxGeometry x="-390" y="-40" width="120" height="60" as="geometry" />
        </mxCell>
        <mxCell id="CYDQbAtZ5SAw5Xn96PkI-4" value="全局变量 errno" style="rounded=0;whiteSpace=wrap;html=1;" parent="1" vertex="1">
          <mxGeometry x="-690" y="-150" width="120" height="60" as="geometry" />
        </mxCell>
        <mxCell id="CYDQbAtZ5SAw5Xn96PkI-5" value="fd3/4/5..." style="rounded=0;whiteSpace=wrap;html=1;" parent="1" vertex="1">
          <mxGeometry x="-390" y="45" width="120" height="60" as="geometry" />
        </mxCell>
        <mxCell id="CYDQbAtZ5SAw5Xn96PkI-6" value="环境变量&amp;nbsp;environ" style="rounded=0;whiteSpace=wrap;html=1;" parent="1" vertex="1">
          <mxGeometry x="-690" y="-55" width="120" height="60" as="geometry" />
        </mxCell>
        <mxCell id="CYDQbAtZ5SAw5Xn96PkI-8" value="malloc &amp;amp; free" style="rounded=0;whiteSpace=wrap;html=1;" parent="1" vertex="1">
          <mxGeometry x="-690" y="50" width="120" height="60" as="geometry" />
        </mxCell>
        <mxCell id="CYDQbAtZ5SAw5Xn96PkI-9" value="重定向&lt;br&gt;close &amp;amp; open" style="whiteSpace=wrap;html=1;" parent="1" vertex="1">
          <mxGeometry x="-390" y="130" width="120" height="60" as="geometry" />
        </mxCell>
        <mxCell id="CYDQbAtZ5SAw5Xn96PkI-11" value="文件描述符 fd" style="text;html=1;align=center;verticalAlign=middle;resizable=0;points=[];autosize=1;strokeColor=none;fillColor=none;" parent="1" vertex="1">
          <mxGeometry x="-445" y="-250" width="100" height="30" as="geometry" />
        </mxCell>
        <mxCell id="CYDQbAtZ5SAw5Xn96PkI-12" value="" style="shape=singleArrow;whiteSpace=wrap;html=1;arrowWidth=0.4;arrowSize=0.4;rotation=-90;" parent="1" vertex="1">
          <mxGeometry x="470" y="270" width="120" height="60" as="geometry" />
        </mxCell>
        <mxCell id="CYDQbAtZ5SAw5Xn96PkI-13" value="wait&lt;br style=&quot;border-color: var(--border-color);&quot;&gt;&lt;span style=&quot;&quot;&gt;waitpid&lt;/span&gt;" style="text;html=1;align=center;verticalAlign=middle;resizable=0;points=[];autosize=1;strokeColor=none;fillColor=none;" parent="1" vertex="1">
          <mxGeometry x="501" y="360" width="60" height="40" as="geometry" />
        </mxCell>
      </root>
    </mxGraphModel>
  </diagram>
</mxfile>
